<?xml version="1.0" encoding="utf-8"?>
<!-- Generator: Adobe Illustrator 24.0.3, SVG Export Plug-In . SVG Version: 6.00 Build 0)  -->
<svg version="1.1" id="Layer_1" xmlns="http://www.w3.org/2000/svg" xmlns:xlink="http://www.w3.org/1999/xlink" x="0px" y="0px"
	 viewBox="0 0 726 255" style="enable-background:new 0 0 726 255;" xml:space="preserve">
<style type="text/css">
	.st0{fill:#F49600;}
	.st1{fill:#FFFFFF;}
	.st2{fill:#571D00;}
	.st3{fill-rule:evenodd;clip-rule:evenodd;fill:#A3C616;}
	.st4{fill-rule:evenodd;clip-rule:evenodd;fill:#E83672;}
	.st5{fill-rule:evenodd;clip-rule:evenodd;fill:#571D00;}
	.st6{fill-rule:evenodd;clip-rule:evenodd;fill:#00B1E3;}
	.st7{fill-rule:evenodd;clip-rule:evenodd;fill:#00A362;}
	.st8{fill-rule:evenodd;clip-rule:evenodd;fill:#764896;}
	.st9{fill-rule:evenodd;clip-rule:evenodd;fill:#F49600;}
	.st10{fill:#68C2C5;}
	.st11{fill-rule:evenodd;clip-rule:evenodd;fill:#DF97C2;}
</style>
<path class="st0" d="M168.5,37.7C121.9,17.7,80.5,8,34.6,8.9c-12.5,0.3-24.4,12-25.4,24.8C6.3,75.9,12.6,117.1,28,157.4
	c5,12.3,16.9,23,25.4,23.2c28.6,0.5,57.2-5.1,85.7-16.9c8.5-3.8,19.4-14.6,23.4-23c13-29.8,18.8-51.8,18.8-79.7
	C181.3,55.3,184.3,44.5,168.5,37.7"/>
<path class="st1" d="M105,51.4L86.8,75.3l0.7,35.5L103.3,82L105,51.4z"/>
<path class="st1" d="M82.4,131.6l-5.8-55.7L53.8,56.4l-0.3,39.8l24,41.9L59.3,148l-16.5-1.6L45,160l17.9-1.2l20.8-15.6l44.2-2.4
	l32.6-29.5L117,115l-23.2,15.8l35.1-45.5L115.3,42l-5.6,43.8L82.4,131.6z"/>
<path class="st2" d="M373.2,167.4c-9.1,9.1-19.3,13.6-30.8,13.6c-11.3,0.1-20.3-4.4-27.1-13.5c-6.7-9.1-8.7-23.3-6.1-42.8
	s8.5-33.8,17.6-42.9C336,72.6,346.2,68,357.6,68s20.5,4.6,27.2,13.7c6.6,9.1,8.6,23.4,6.1,42.9C388.2,144.1,382.4,158.3,373.2,167.4
	 M360.7,93.8c-0.1-8.5-1.7-12.8-4.9-12.8c-2.9,0-5.6,4.3-7.9,12.8c-2.4,8.5-4.5,18.8-6.1,30.8c-1.6,12.1-2.3,22.3-2.2,30.7
	c0.1,8.5,1.6,12.7,4.5,12.7c3.2,0,5.9-4.2,8.2-12.7c2.3-8.4,4.3-18.7,5.9-30.7C359.9,112.6,360.7,102.4,360.7,93.8"/>
<path class="st2" d="M515.6,168.4c-9.1,9.1-19.4,13.6-30.8,13.6c-11.3,0-20.3-4.4-27.1-13.5c-6.7-9-8.7-23.3-6.1-42.9
	c2.5-19.4,8.4-33.7,17.6-42.9c9.1-9.1,19.4-13.6,30.7-13.7c11.4,0,20.5,4.5,27.2,13.7c6.7,9.1,8.6,23.4,6,42.9
	S524.6,159.3,515.6,168.4 M502.9,94.8c-0.1-8.5-1.6-12.8-4.9-12.8c-2.9,0-5.5,4.3-7.9,12.8s-4.4,18.8-6,30.7
	c-1.6,12.1-2.4,22.3-2.2,30.7c0.1,8.4,1.6,12.7,4.5,12.7c3.2,0,5.9-4.2,8.2-12.7s4.3-18.7,5.9-30.7
	C502.2,113.6,503,103.3,502.9,94.8"/>
<path class="st2" d="M535.9,180.7l20.2-150.5h-5.5l1.9-14.6h37.4l-20.3,151.6l7.5-0.4l-1.8,13.4L535.9,180.7z"/>
<path class="st2" d="M625,180.6l1.1-8l-10,8.4l-2.8,0.1l-2.6,0.1c-7.7-0.1-14.1-2.6-19.3-7.4c-5.3-4.8-8.1-11.8-8.4-20.9
	c0-1.6,0-3.1,0.1-4.6c0.1-1.4,0.3-2.8,0.5-4.2c1.4-11.1,5.8-20,12.9-26.8c7.2-6.7,14.7-11.1,22.7-13.8c2.5-0.9,4.9-1.6,7.3-2.1
	c2.4-0.4,4.7-0.7,6.9-0.9c0.8-6.4,0.6-11.2-0.7-13.8c-1.4-2.6-4.1-4-8.1-3.9h-1.4l-1.6,0.2l-3.2,8.4h-14.8l2.4-18.7
	c3.5-1.4,7.1-2.5,11.1-3.3s7.9-1.1,12-1.1h0.8h1c9.7,0.3,18,3.6,25.3,9.9c7.2,6.3,9.8,17.2,7.8,32.4l-7.6,56.3h6.1l-1.7,13.5
	L625,180.6z M631.6,114.5c-3,1-5.9,3.4-8.6,7.2c-2.7,3.7-4.8,8.2-6.3,14.2c-0.7,2.1-1.2,4.2-1.5,6.3s-0.6,4-0.9,5.8
	c-0.6,4.4-0.6,8.1,0,11.1c0.7,3.7,3.7,5.7,4.3,5.8l4.4-2.5c1.1-1.2,2-3,3-5.3L631.6,114.5z"/>
<path class="st2" d="M452.6,32.4c3.1-1.9,6.7-2.9,10.6-2.8h5l1.9-13.7h-15.8c-9.8,0-18.6,3.2-26.5,9.5C420,31.7,415,43.2,412.7,60
	l-1.4,10.5l-5.5-0.1L404,84.7h5.4l-5.1,37.9l-10.7,81.6c-0.8,5.8-2.7,9.7-5.9,11.6c-3.1,1.9-6.7,2.8-10.6,2.8H372l-1.9,13.8h15.8
	c9.8,0,18.7-3.2,26.5-9.6c7.8-6.3,12.8-17.9,15.1-34.6l3.9-31.5l9.7-72.2H459l1.9-14.2h-17.8l3.6-26.5
	C447.5,38.2,449.5,34.3,452.6,32.4"/>
<path class="st2" d="M264.7,180.2c0.3-9-0.8-17.2-3-24.8c-2.2-7.5-5.4-13.8-9.6-19.1l-5.9,43.9h-37.4l2-14.7h5.5l18.1-136h-5.5
	l2-14.6h37.3L255,115l31.8-45.3l21.9,0.1l-2,14.6l-3.6-0.2l-22.9,32.4c2.9,2.6,7.8,9.9,11.6,19c3.7,9,6,18.9,6.8,29.9h5.3l-2,14.6
	L264.7,180.2z"/>
<path class="st2" d="M690.8,81.5c-1.9,1.8-4.1,2.8-6.7,2.8s-4.9-1-6.7-2.8s-2.8-4.1-2.8-6.7c0-2.5,0.9-4.8,2.8-6.6
	c1.8-1.9,4.1-2.8,6.7-2.8s4.9,0.9,6.7,2.8c1.8,1.8,2.7,4,2.7,6.6S692.6,79.6,690.8,81.5 M678.3,69.1c-1.6,1.6-2.4,3.5-2.4,5.7
	s0.8,4.1,2.4,5.7s3.5,2.4,5.8,2.4s4.2-0.8,5.8-2.4s2.4-3.5,2.4-5.7c0-2.3-0.8-4.2-2.4-5.7s-3.6-2.4-5.8-2.4S679.9,67.6,678.3,69.1
	 M683.9,69.7c1.3,0,2.2,0.1,2.8,0.4l1.7,2.6l-1,2l-1.5,0.5l1.7,1l0.6,1.6v0.7v0.8l0.1,0.5l0.1,0.1h-1.7l-0.1-0.1v-0.1v-0.3v-0.9
	l-1-2.4l-2.1-0.3H682v4.1h-1.8V69.7L683.9,69.7z M685.9,71.3l-2.3-0.4H682v3.7h1.7l1.8-0.2l1.1-1.6L685.9,71.3z"/>
<g>
	<path class="st3" d="M511.2,202.1c-0.5,6.7,0.3,15.4,0.4,23.1c1.2-0.2,1.9,0.1,3-0.2c2.1-2.4,2.5-6.1,4.2-9.3
		c1.2-0.1,1.9,0.2,2.7,0.5c-1.1,3.9-2.3,7.6-4.3,10.6c2.5,3.1,4.4,6.7,6,10.6c-0.7,0.4-1.7,0.6-2.7,0.7c-1.7-3.7-3.7-7.1-6-10.1
		c-0.9,0-1.8,0-2.7,0c-0.1,2.7,0.2,7-0.2,10c-0.9-0.2-1.9-0.5-2.5-1c-0.2-11.5-1.6-23.6-0.5-34.8C509.1,201.6,510.2,202,511.2,202.1
		L511.2,202.1z"/>
	<path class="st4" d="M683.9,201.9c-0.3,6.5,0.5,15.1,0.3,22.9c0.9,0.2,2,0.2,3.2,0c1.9-2.6,2.5-6,4-9.3c1.2-0.1,1.9,0.2,2.7,0.5
		c-1,4-2.3,7.7-4.3,10.6c2.5,3,4.5,6.6,6,10.6c-0.7,0.4-1.5,0.6-2.5,0.7c-2-3.5-3.7-7.1-6.2-10.1c-0.9,0-1.8,0-2.7,0
		c-0.1,2.7,0.2,7-0.2,10c-0.9-0.3-1.9-0.5-2.5-1c-0.3-11.5-1.2-23.7-0.5-34.8C681.8,201.5,683,201.9,683.9,201.9L683.9,201.9z"/>
	<path class="st5" d="M461.5,201c1.4-0.9,2.2-2.3,3.8-3c0.3,0.7,1.1,0.9,1.2,1.8c-1.9,1-3,2.8-4.5,4.2c-1.9-1.4-3.4-3.2-5-5
		C458.3,196.2,460.5,199.7,461.5,201z"/>
	<path class="st6" d="M573.5,205c0.1,5.6-0.3,12.7,0,19.3c0.1,2.7,0.2,5.1,0.3,8c0.2,3.5,2.4,5.7,6,5.1c0.3,0.8,0.1,1.8,0,2.7
		c-2.4,0.7-4.2-0.7-6-1.2c-2.9-2.8-3-8.4-3.3-13.3c-0.4-5.6,0-13.9,0.3-20.6C571.6,204.7,572.6,204.9,573.5,205z"/>
	<path class="st5" d="M470.6,215.9c-0.5,0.2-1.6,0.3-2-0.2c-0.6-1.2-0.3-2.4-0.7-3.3c-1.6-4.5-9.4-4.5-12-1.2c-1.6,2.7-2,7-2.2,12
		c-0.3,7.5,0.4,17.8,3.8,20.8c2.4,2.1,8.1,0.6,10-1.5c1.2-2.4,1.8-5.4,2-8.8c1,0.4,1.8,1.1,2.5,1.8c0.4,5.3-2.2,9.7-5.3,11.1
		c-6,2.7-11.3,0.5-13.6-4.2c-1.4-2.7-2.1-7.3-2.3-11.5c-0.4-6.1-0.1-13.1,1.1-17.6c0.5-2,1.5-4.1,2.8-5.3
		C460.1,203.1,473.1,206.9,470.6,215.9L470.6,215.9z"/>
	<path class="st7" d="M532,215.4c0.8-0.2,2.4,0.2,3.7,0.2c0.5,0,1-0.3,1.5-0.3c4.8,0.2,7.2,2.3,7.8,6.1c0.5,2.8,0.7,5.9,0.5,9.3
		c-0.1,1.5-0.2,4.1-0.6,5.2c-0.9,2.1-4.4,3.7-7.1,4c-5.4,0.5-10.3-1-11.5-5.5c-0.9-3.4-0.7-9.2-0.2-12.3
		C526.5,218.9,528.6,216,532,215.4L532,215.4z M542,234.3c0.6-3.3,1.6-12.7-0.7-15c-2.2-2.2-12.3-2.3-12.1,2
		c-0.1,3.7-1.6,11.4,1,14.1c2.3,2.5,10,1.7,11.8-1C542,234.7,542.2,234.5,542,234.3z"/>
	<path class="st8" d="M599.6,218.1c1,3.2,1.3,7.3,1.2,12.1c-0.1,1.9,0,4.1-0.5,5.3c-1.5,3.6-8.9,5.1-13.3,3.8
		c-4.4-1.2-5.3-3.8-5.7-9.5c-0.4-6.5,0-13.8,6.3-14.8c0.6-0.1,2,0,3,0C593.6,215.2,597.8,215.8,599.6,218.1L599.6,218.1z
		 M596.8,219.5c-2.6-2.7-10.5-1.9-11.8,0.5c-1.1,2.1-1.4,12.1,0,14.6c1.7,3.2,10.2,2.9,12.5-0.2
		C597.6,230.8,599.1,221.9,596.8,219.5L596.8,219.5z"/>
	<path class="st5" d="M704.7,215.2c0.7-0.7,2.6,0.2,3.7,0.2c0.6,0,1-0.4,1.5-0.3c3,0.1,5.5,1.4,7.1,3.2c1.4,4.7,1.7,12.7,0.3,17.8
		c-3.1,4.5-14.7,5.5-17.6,0.2c-1.8-3.2-1.7-10.2-1-14.1C699.3,218.7,701.4,215.9,704.7,215.2L704.7,215.2z M702.6,219.5
		c-0.6,0.9-0.9,3-1,4.6c-0.3,4.4-0.4,8.8,1.2,10.8c1.7,2.2,9,2.5,11.3,0.3c2.4-2.2,1.5-13.7,0-16.3
		C710.4,217.8,704.7,216.3,702.6,219.5L702.6,219.5z"/>
	<path class="st9" d="M502,224.9c-0.8,0.2-1.8-0.8-2.5-1.3c0.1-1.9-0.1-2.8-0.5-4.3c-1.2,0-2.7-0.2-3.3,0.3c-0.6,3.6-0.3,5.9,2,7.3
		c0.9,0.6,2.1,0.7,3,1.3c0.3,0.3,0.6,0.9,1,1.2c0.7,0.6,1.6,1,2,1.8c1.5,3.1,0.9,9.8-1.8,11.3c-3.1,1.8-8.7,0.2-9.6-3.3
		c-0.6-2.3-0.7-6.1,2.5-4.7c0.3,1.7-0.6,3.5,0.5,4.8c1,1.2,4.2,1.3,5.3,0.3c1.6-1.4,0.5-5.4,0.2-7.3c-1.8-2.3-6.6-3.1-7.8-6.3
		c-1-2.6-0.2-7,1.2-9c2-0.4,4.4-1.2,6.3-0.3C502.8,217.8,502.2,222.4,502,224.9L502,224.9z"/>
</g>
<path class="st10" d="M563.6,245c-1.2,0.7-2.8,1.1-4.4,1.1c-3.9,0-8.6-2-9.6-5.8c-0.6-2.3-0.7-5.2,0.1-6.3c0.2-0.3,0.6-0.5,1-0.5
	c0.3,0,0.7,0.1,1.2,0.2c0.1,0.8,0,1.7,0,2.5c-0.2,1.7-0.3,3.5,0.9,5.1c1.1,1.4,3.4,1.8,5.2,1.8s3.4-0.4,4.4-1.2
	c2.5-2.1,1.5-7.1,0.8-10.6c-0.1-0.6-0.2-1.2-0.3-1.7l-0.2-0.4c-1.3-1.7-3.4-2.9-5.7-4.1c-2.7-1.5-5.6-3.1-6.6-5.6
	c-1.5-3.7-0.3-10.1,1.6-13.1c0.4-0.1,0.9-0.2,1.4-0.3c2.8-0.6,5.8-1.1,7.8-0.2c2.9,1.3,2.5,6.8,2.2,10.5v0.7
	c-0.7-0.2-1.5-0.9-2.1-1.4l-0.2-0.2c0.1-2.7-0.1-4.2-0.8-6.7l-0.2-0.7h-0.7c-0.2,0-0.4,0-0.7,0h-1.8c-1.2,0-2.4,0.1-3.2,0.7
	l-0.3,0.2l-0.1,0.3c-0.9,5.6-0.6,9.9,3.6,12.4c0.7,0.4,1.5,0.7,2.3,1c0.9,0.3,1.7,0.6,2.4,1.1c0.2,0.2,0.4,0.5,0.7,0.8
	c0.3,0.4,0.6,0.7,0.9,1s0.7,0.5,1.1,0.8c0.8,0.6,1.5,1.1,1.9,1.8C568.4,232.8,567.4,242.8,563.6,245L563.6,245z"/>
<path class="st6" d="M673.4,216.6c1.9,1.2,2.1,5.7,1.7,8.1c-1,0.4-1.7-1-2.7-1.2c-0.1-1.8,0.1-2.8-0.3-4.3c-0.8-0.3-2.8-0.3-3.3,0.2
	c-0.3,1.4-0.7,3.4-0.3,4.8c0.3,1.3,1.8,1.6,2.2,2.5c1.9,0.1,2.9,1.6,4.2,2.7c0.5,0.4,1,0.5,1.3,0.8c2.1,2.5,2,10-1.2,12
	c-2.8,1.7-7.4,0.8-9.3-1.8c-0.6-2.5-1.7-7.2,2-6c0,1.6-0.2,4.4,1,5.3c1.6,0.2,3.4,0.7,4.7,0c1.6-1,1.4-5.8,0.3-7.5
	c-1.7-2.6-6.7-3.2-7.8-6.5c-0.4-2.7-0.5-6.8,1-8.6C668.5,216.1,671,216.3,673.4,216.6L673.4,216.6z"/>
<path class="st5" d="M649.3,219.4c0.1,0.9-0.3,1.4-0.2,2.3c3.1-0.2,8.2-1,10.2,1.8c0.5,0.7,0.9,2.2,1.2,3.1c0.8,3.7,0.1,9.1,0,13.3
	c-0.9,0.3-1.8,0-2.7-0.2c-0.4-4.4,0.7-9.4-0.5-13.2c-1-3-4.3-2.2-7.8-2.1c-0.3,4.4-0.2,10.8-0.3,15.8c-0.8-0.1-2.1,0.2-2.7-0.2
	c0.1-7.2-0.7-14.5,0.3-20.8C647.8,219.2,648.2,219.4,649.3,219.4L649.3,219.4z"/>
<path class="st4" d="M615.7,236.4c2-1.4,2.9-3.8,4.7-5.5c2-3.6,3.8-7.5,6.8-10.1c0.2,0.9,0.8,1.5,1.2,2.3
	c-4.3,6.1-6.9,12.8-12.5,17.6c-1.1-0.8-2.1-1.6-2.7-3c0-0.3-0.6-0.1-0.7-0.3c-1.4-3.5-3.5-6.3-5.1-9.5c-1.3-2.5-4-4.4-3.8-7.8
	c0.5-0.3,1.2-0.4,1.7-0.7C608.7,225.1,612.7,230.3,615.7,236.4L615.7,236.4z"/>
<path class="st4" d="M479.6,235c-0.4,4.5,5.9,2.9,8.3,2.8c0.3,0.7-0.4,1.8-0.3,2.8c-4.3,0.6-9,0.5-10.5-2.8
	c-0.7-5.4-1.2-12,2.1-14.8c2.5-1,6.4-1.2,8.5,0s2.1,5.1,1.2,7.7C487.7,233.9,483.6,234.9,479.6,235L479.6,235z M480.9,225.7
	c-1.2,1.4-1.4,3.9-1.5,6.5c5,0.6,7.5-2,6.8-6.5C484.4,225.5,482.3,224.9,480.9,225.7z"/>
<path class="st11" d="M633.2,234.9c-0.4,4.5,5.9,2.9,8.3,2.8c0.3,0.7-0.4,1.8-0.3,2.8c-4.3,0.6-9,0.5-10.5-2.8
	c-0.7-5.4-1.3-12,2.1-14.8c2.4-1,6.4-1.2,8.5,0s2.1,5.1,1.2,7.6C641.3,233.8,637.2,234.8,633.2,234.9z M634.5,225.6
	c-1.2,1.4-1.4,3.9-1.5,6.5c5,0.6,7.5-2,6.8-6.5C638,225.4,635.9,224.8,634.5,225.6z"/>
</svg>
